<?xml version="1.0" encoding="utf-8"?>
<!-- Generator: Adobe Illustrator 21.0.0, SVG Export Plug-In . SVG Version: 6.00 Build 0)  -->
<svg version="1.1" id="Layer_1" xmlns="http://www.w3.org/2000/svg" xmlns:xlink="http://www.w3.org/1999/xlink" x="0px" y="0px"
	 viewBox="0 0 91 91" style="enable-background:new 0 0 91 91;" xml:space="preserve">
<style type="text/css">
	.st0{fill:#5AAAFA;}
	.st1{fill:#FDE876;}
	.st2{fill:#1D3649;}
	.st3{fill:#FDE876;stroke:#1D3649;stroke-width:2;}
</style>
<title>Reliability Engineer</title>
<desc>Created with Sketch.</desc>
<circle id="Oval-3" class="st0" cx="45.5" cy="45.5" r="45.5"/>
<path id="Oval-2" class="st1" d="M72.6,38.1c2.5,0,4.6-2,4.6-4.6c0-2.5-2.1-4.6-4.6-4.6S68,31,68,33.6C68,36.1,70.1,38.1,72.6,38.1z
	"/>
<path id="Shape" class="st2" d="M77.1,28.8C76,27.7,74.4,27,72.6,27H36.3C24.5,27,15,36.4,15,48s9.5,21,21.3,21
	c5.9,0,11.2-2.4,15.1-6.2c6.4-6.3,25.7-25.1,25.7-25.1c1.2-1.1,1.9-2.7,1.9-4.5C79,31.6,78.3,30,77.1,28.8L77.1,28.8z M36.3,66.9
	c-10.6,0-19.2-8.5-19.2-18.9s8.6-18.9,19.2-18.9S55.5,37.6,55.5,48S46.9,66.9,36.3,66.9L36.3,66.9z M56.4,55c0.8-2.2,1.2-4.5,1.2-7
	c0-8.3-4.9-15.5-12.1-18.9h22.3c-1,1.1-1.6,2.6-1.6,4.2c0,3.4,2.7,6.1,6,6.3C68.3,43.4,61.8,49.8,56.4,55L56.4,55z M72.6,37.5
	c-2.4,0-4.3-1.9-4.3-4.2s1.9-4.2,4.3-4.2s4.3,1.9,4.3,4.2S75,37.5,72.6,37.5L72.6,37.5z"/>
<g>
	<path id="path-1_1_" class="st3" d="M36.3,37.5c-5.9,0-10.7,4.7-10.7,10.5s4.8,10.5,10.7,10.5S47,53.8,47,48S42.2,37.5,36.3,37.5
		L36.3,37.5z M36.3,52.2c-2.4,0-4.3-1.9-4.3-4.2s1.9-4.2,4.3-4.2c2.4,0,4.3,1.9,4.3,4.2S38.7,52.2,36.3,52.2L36.3,52.2z"/>
</g>
</svg>
