<?xml version="1.0" encoding="utf-8"?>
<!-- Generator: Adobe Illustrator 21.0.0, SVG Export Plug-In . SVG Version: 6.00 Build 0)  -->
<svg version="1.1" id="Layer_1" xmlns="http://www.w3.org/2000/svg" xmlns:xlink="http://www.w3.org/1999/xlink" x="0px" y="0px"
	 viewBox="0 0 91 91" style="enable-background:new 0 0 91 91;" xml:space="preserve">
<style type="text/css">
	.st0{fill:#5AAAFA;}
	.st1{fill:#1D3649;}
	.st2{fill:#C8F08F;}
</style>
<circle id="Oval-3-Copy" class="st0" cx="45.5" cy="45.5" r="45.5"/>
<path id="Shape" class="st1" d="M45.4,50.2c3.1,0,5.6-2.5,5.6-5.6c0-3.1-2.5-5.6-5.6-5.6c-3.1,0-5.6,2.5-5.6,5.6
	C39.8,47.7,42.3,50.2,45.4,50.2L45.4,50.2z M45.4,40.9c2.1,0,3.8,1.7,3.8,3.7c0,2.1-1.7,3.7-3.8,3.7s-3.8-1.7-3.8-3.7
	C41.6,42.5,43.3,40.9,45.4,40.9L45.4,40.9z"/>
<circle class="st2" cx="45.3" cy="59.7" r="4.1"/>
<path id="Shape-Copy" class="st1" d="M45.4,36.2c3.1,0,5.6-2.5,5.6-5.6S48.5,25,45.4,25c-3.1,0-5.6,2.5-5.6,5.6S42.3,36.2,45.4,36.2
	L45.4,36.2z M45.4,26.9c2.1,0,3.8,1.7,3.8,3.7s-1.7,3.7-3.8,3.7s-3.8-1.7-3.8-3.7S43.3,26.9,45.4,26.9L45.4,26.9z"/>
<path id="Shape_1_" class="st1" d="M66.1,39.4h-7.5v-3.7l7.5-11.2h-7.5V17H32.2v7.5h-7.5l7.5,11.2v3.7h-7.5l7.5,11.2v3.7h-7.5
	l7.5,11.2V73h26.3v-7.5l7.5-11.2h-7.5v-3.7L66.1,39.4L66.1,39.4z M56.7,71.1H34.1V18.9h22.6V71.1L56.7,71.1z"/>
<path id="Shape_2_" class="st1" d="M45.4,65.2c3.1,0,5.6-2.5,5.6-5.6c0-3.1-2.5-5.6-5.6-5.6c-3.1,0-5.6,2.5-5.6,5.6
	C39.8,62.7,42.3,65.2,45.4,65.2L45.4,65.2z M45.4,55.9c2.1,0,3.8,1.7,3.8,3.7c0,2.1-1.7,3.7-3.8,3.7s-3.8-1.7-3.8-3.7
	C41.6,57.5,43.3,55.9,45.4,55.9L45.4,55.9z"/>
</svg>
