<?xml version="1.0" encoding="utf-8"?>
<!-- Generator: Adobe Illustrator 21.0.0, SVG Export Plug-In . SVG Version: 6.00 Build 0)  -->
<svg version="1.1" id="Layer_1" xmlns="http://www.w3.org/2000/svg" xmlns:xlink="http://www.w3.org/1999/xlink" x="0px" y="0px"
	 viewBox="0 0 91 91" style="enable-background:new 0 0 91 91;" xml:space="preserve">
<style type="text/css">
	.st0{fill:#5AAAFA;}
	.st1{fill:#1D3649;}
	.st2{fill:#C0E6FF;stroke:#1D3649;stroke-width:2;}
</style>
<title>Work Execution</title>
<desc>Created with Sketch.</desc>
<g id="Pages">
	<g id="Welcome" transform="translate(-786.000000, -226.000000)">
		<g id="Group-8" transform="translate(786.000000, 226.000000)">
			<g id="Group-7">
				<circle id="Oval-3-Copy-3" class="st0" cx="45.5" cy="45.5" r="45.5"/>
				<path id="Shape" class="st1" d="M70,26.1l-7.1,7.1c-1,1-2.3,1.5-3.5,1.5s-2.6-0.5-3.5-1.5c-2-2-2-5.1,0-7.1l7.1-7.1
					c-1.6-0.7-3.4-1.1-5.2-1.1c-7.4,0-13.4,6-13.4,13.4c0,1.5,0.3,3,0.7,4.4L22.6,58.1c-2.3,2.3-2.3,6,0,8.3
					c1.1,1.1,2.6,1.7,4.1,1.7s3-0.6,4.1-1.7l22.5-22.5c1.4,0.5,2.8,0.7,4.4,0.7c7.4,0,13.4-6,13.4-13.4C71.1,29.4,70.7,27.7,70,26.1
					L70,26.1z"/>
				<path id="Path" class="st0" d="M53.9,42.3l-1-0.3l-0.7,0.7L29.7,65.2c-0.8,0.8-1.8,1.2-3,1.2c-1.1,0-2.2-0.4-3-1.2
					c-1.6-1.6-1.6-4.3,0-5.9l22.5-22.5l0.7-0.7l-0.3-1c-0.4-1.3-0.7-2.5-0.7-3.8c0-6.5,5.3-11.7,11.7-11.7c0.7,0,1.4,0.1,2.1,0.2
					l-5.1,5.1c-2.6,2.6-2.6,6.9,0,9.5c1.3,1.3,2.9,2,4.7,2s3.5-0.7,4.7-2l5.1-5.1c0.1,0.7,0.2,1.4,0.2,2.1c0,6.5-5.3,11.7-11.7,11.7
					C56.4,43,55.1,42.8,53.9,42.3z"/>
				<path id="Path_1_" class="st2" d="M53.9,42.3l-1-0.3c0,0-2.2-1.1-3.8-2.7c-1.6-1.6-2.1-3.3-2.1-3.3l-0.3-1
					c-0.4-1.3-0.7-2.5-0.7-3.8c0-6.5,5.3-11.8,11.8-11.8c0.7,0,1.4,0.1,2.1,0.2l-5.1,5.1c-2.6,2.6-2.6,6.9,0,9.5c1.3,1.3,3,2,4.8,2
					c1.8,0,3.5-0.7,4.8-2l5.1-5.1c0.1,0.7,0.2,1.4,0.2,2.1c0,6.5-5.3,11.8-11.8,11.8C56.5,43,55.2,42.8,53.9,42.3z"/>
				<ellipse id="Oval" class="st1" cx="26.8" cy="62.2" rx="1.7" ry="1.7"/>
			</g>
		</g>
	</g>
</g>
</svg>
