<?xml version="1.0" encoding="UTF-8"?>
<svg width="93px" height="77px" viewBox="0 0 93 77" version="1.1" xmlns="http://www.w3.org/2000/svg" xmlns:xlink="http://www.w3.org/1999/xlink">
    <!-- Generator: Sketch 41.2 (35397) - http://www.bohemiancoding.com/sketch -->
    <title>Group</title>
    <desc>Created with Sketch.</desc>
    <defs>
        <filter x="-50%" y="-50%" width="200%" height="200%" filterUnits="objectBoundingBox" id="filter-1">
            <feGaussianBlur stdDeviation="2.40513393" in="SourceGraphic"></feGaussianBlur>
        </filter>
    </defs>
    <g id="Page-1" stroke="none" stroke-width="1" fill="none" fill-rule="evenodd">
        <g id="Form-Builder-Blank" transform="translate(-497.000000, -264.000000)">
            <g id="Group" transform="translate(502.000000, 264.000000)">
                <ellipse id="Oval" fill="#ECECEC" filter="url(#filter-1)" cx="41.5" cy="65.5" rx="41.5" ry="5.5"></ellipse>
                <g id="Group-3" transform="translate(4.000000, 0.000000)" fill="#E0E0E0">
                    <path d="M26.8840909,17.3157895 L47.4960744,17.3157895 C45.2733471,14.3337632 41.4886364,12.3684211 37.1900826,12.3684211 C32.8909091,12.3684211 29.1068182,14.3337632 26.8840909,17.3157895 L26.8840909,17.3157895 Z" id="Shape"></path>
                    <path d="M24.8745868,22.2631579 C24.8225207,22.6688421 24.7933884,23.0819474 24.7933884,23.5 L24.7933884,27.2105263 L49.5867769,27.2105263 L49.5867769,23.5 C49.5867769,23.0819474 49.5576446,22.6688421 49.5055785,22.2631579 L24.8745868,22.2631579 L24.8745868,22.2631579 Z" id="Shape"></path>
                    <path d="M24.7933884,35.8684211 C24.7933884,36.2864737 24.8225207,36.6995789 24.8745868,37.1052632 L49.5055785,37.1052632 C49.5576446,36.6995789 49.5867769,36.2864737 49.5867769,35.8684211 L49.5867769,32.1578947 L24.7933884,32.1578947 L24.7933884,35.8684211 L24.7933884,35.8684211 Z" id="Shape"></path>
                    <path d="M37.1900826,47 C41.4886364,47 45.2733471,45.0346579 47.4960744,42.0526316 L26.8840909,42.0526316 C29.1068182,45.0346579 32.8909091,47 37.1900826,47 L37.1900826,47 Z" id="Shape"></path>
                    <path d="M5.53016529,19.9113026 C4.47458678,20.3485263 3.48161157,20.9910658 2.62376033,21.8475789 C1.76404959,22.7053289 1.12128099,23.6929474 0.683057851,24.7467368 C0.228719008,25.8413421 -0.00123966942,27.0039737 1.35003121e-13,28.1672237 C-0.00123966942,29.3341842 0.228719008,30.4961974 0.683057851,31.5889474 C1.12128099,32.6458289 1.76404959,33.6328289 2.62376033,34.4887237 C3.4822314,35.3464737 4.47458678,35.9877763 5.52954545,36.4262368 C6.61859504,36.8758289 7.77954545,37.1052632 8.94049587,37.1052632 L8.95847107,37.1052632 L8.97644628,37.1052632 C10.136157,37.1052632 11.2958678,36.8758289 12.3867769,36.4237632 C13.4448347,35.9877763 14.4340909,35.3452368 15.292562,34.4887237 C16.1510331,33.6322105 16.796281,32.6445921 17.2345041,31.5889474 L24.7933884,12.3684211 L5.53016529,19.9113026 L5.53016529,19.9113026 Z M14.9355372,30.6619342 C14.6082645,31.443 14.1384298,32.1424342 13.5390496,32.7398289 C12.9353306,33.3421711 12.2293388,33.8121711 11.4365702,34.1393158 C10.6475207,34.4658421 9.82004132,34.6315789 8.97644628,34.6315789 L8.93987603,34.6315789 C8.09504132,34.6315789 7.26570248,34.4658421 6.4822314,34.1430263 C5.68450413,33.8115526 4.97665289,33.3396974 4.37479339,32.7385921 C3.77293388,32.1381053 3.30123967,31.4337237 2.97272727,30.6415263 C2.64483471,29.8511842 2.47809917,29.0187895 2.47933884,28.16475 C2.47809917,27.3168947 2.64483471,26.4851184 2.97272727,25.6947763 C3.3018595,24.9038158 3.77417355,24.1981974 4.37665289,23.5970921 C4.97293388,23.0021711 5.67396694,22.5340263 6.45991736,22.2050263 L20.4092975,16.7425132 L14.9355372,30.6619342 L14.9355372,30.6619342 Z" id="Shape"></path>
                    <path d="M73.6971074,24.7467368 C73.2588843,23.6935658 72.6161157,22.7053289 71.756405,21.8475789 C70.8979339,20.9910658 69.9055785,20.3485263 68.85,19.9113026 L49.5867769,12.3684211 L57.1456612,31.5889474 C57.5838843,32.6445921 58.2291322,33.6328289 59.0876033,34.4887237 C59.9460744,35.3452368 60.9347107,35.9877763 61.9933884,36.4237632 C63.0842975,36.8752105 64.2440083,37.1052632 65.403719,37.1052632 L65.4216942,37.1052632 L65.4396694,37.1052632 C66.6006198,37.1052632 67.7615702,36.8758289 68.8512397,36.4262368 C69.9055785,35.9877763 70.8985537,35.3464737 71.7570248,34.4887237 C72.6167355,33.6322105 73.2595041,32.6458289 73.6977273,31.5889474 C74.1514463,30.4955789 74.3820248,29.3341842 74.3807851,28.1672237 C74.381405,27.0039737 74.1514463,25.8407237 73.6971074,24.7467368 L73.6971074,24.7467368 Z M71.4061983,30.6433816 C71.0789256,31.4337237 70.6066116,32.1387237 70.0022727,32.7416842 C69.4028926,33.3403158 68.6950413,33.8115526 67.9041322,34.1405526 C67.113843,34.4664605 66.2845041,34.6321974 65.4396694,34.6321974 L65.4030992,34.6321974 C64.5595041,34.6321974 63.7320248,34.4664605 62.9392562,34.1380789 C62.1508264,33.8134079 61.4442149,33.3427895 60.8404959,32.7404474 C60.2411157,32.1424342 59.771281,31.443 59.4440083,30.6625526 L53.9696281,16.7425132 L67.9190083,22.2050263 C68.7049587,22.5340263 69.4059917,23.0021711 70.0022727,23.5970921 C70.6047521,24.1988158 71.0770661,24.9038158 71.4055785,25.6929211 C71.7340909,26.4857368 71.9008264,27.3175132 71.8995868,28.1703158 C71.9014463,29.0187895 71.7353306,29.8511842 71.4061983,30.6433816 L71.4061983,30.6433816 Z" id="Shape"></path>
                    <path d="M30.9917355,9.89473684 C33.7301653,9.89473684 35.9504132,7.68078947 35.9504132,4.94736842 C35.9504132,2.21394737 33.7301653,0 30.9917355,0 C28.2533058,0 26.0330579,2.21394737 26.0330579,4.94736842 C26.0330579,7.68078947 28.2533058,9.89473684 30.9917355,9.89473684 L30.9917355,9.89473684 Z M30.9917355,2.47368421 C32.3590909,2.47368421 33.4710744,3.58375 33.4710744,4.94736842 C33.4710744,6.31098684 32.3590909,7.42105263 30.9917355,7.42105263 C29.6243802,7.42105263 28.5123967,6.31098684 28.5123967,4.94736842 C28.5123967,3.58375 29.6243802,2.47368421 30.9917355,2.47368421 L30.9917355,2.47368421 Z" id="Shape"></path>
                    <path d="M43.3884298,9.89473684 C46.1268595,9.89473684 48.3471074,7.68078947 48.3471074,4.94736842 C48.3471074,2.21394737 46.1268595,0 43.3884298,0 C40.65,0 38.4297521,2.21394737 38.4297521,4.94736842 C38.4297521,7.68078947 40.65,9.89473684 43.3884298,9.89473684 L43.3884298,9.89473684 Z M43.3884298,2.47368421 C44.7557851,2.47368421 45.8677686,3.58375 45.8677686,4.94736842 C45.8677686,6.31098684 44.7557851,7.42105263 43.3884298,7.42105263 C42.0210744,7.42105263 40.9090909,6.31098684 40.9090909,4.94736842 C40.9090909,3.58375 42.0210744,2.47368421 43.3884298,2.47368421 L43.3884298,2.47368421 Z" id="Shape"></path>
                </g>
            </g>
        </g>
    </g>
</svg>