<?xml version="1.0" encoding="utf-8"?>
<!-- Generator: Adobe Illustrator 21.0.0, SVG Export Plug-In . SVG Version: 6.00 Build 0)  -->
<svg version="1.1" id="Layer_1" xmlns="http://www.w3.org/2000/svg" xmlns:xlink="http://www.w3.org/1999/xlink" x="0px" y="0px"
	 viewBox="0 0 114 113" style="enable-background:new 0 0 114 113;" xml:space="preserve">
<style type="text/css">
	.st0{fill:#8CD211;}
	.st1{fill:#464646;}
	.st2{fill:#FFFFFF;}
	.st3{fill-rule:evenodd;clip-rule:evenodd;fill:none;}
</style>
<ellipse class="st0" cx="40.4" cy="40.3" rx="37.4" ry="37.3"/>
<title>Group 2</title>
<desc>Created with Sketch.</desc>
<rect x="86.6" y="74.5" transform="matrix(0.7071 -0.7071 0.7071 0.7071 -38.3746 94.3859)" class="st1" width="16.3" height="38"/>
<ellipse class="st1" cx="75.5" cy="74.3" rx="3.8" ry="3.8"/>
<path class="st1" d="M40.4,0.5c-22,0-39.9,17.9-39.9,39.8s17.9,39.8,39.9,39.8s39.9-17.9,39.9-39.8C80.2,18.4,62.3,0.5,40.4,0.5z
	 M40.4,75.1c-19.2,0-34.9-15.6-34.9-34.8S21.1,5.5,40.4,5.5c19.2,0,34.9,15.6,34.9,34.8C75.2,59.5,59.6,75.1,40.4,75.1z"/>
<path class="st2" d="M40.4,6.6C21.7,6.6,6.6,21.7,6.6,40.3S21.7,74,40.4,74C59,74,74.1,58.9,74.1,40.3S59,6.6,40.4,6.6z M40.4,73
	C22.3,73,7.6,58.3,7.6,40.3S22.3,7.6,40.4,7.6s32.8,14.7,32.8,32.7C73.1,58.3,58.4,73,40.4,73z"/>
<rect x="-397.6" y="-196.2" class="st3" width="1024" height="768"/>
<rect x="-384" y="-339" class="st3" width="1024" height="768"/>
<polygon class="st2" points="50.6,29.7 36.4,43.5 30.2,37.5 26.6,41.4 36.4,50.9 54.2,33.6 "/>
</svg>
