<?xml version="1.0" encoding="utf-8"?>
<!-- Generator: Adobe Illustrator 21.0.0, SVG Export Plug-In . SVG Version: 6.00 Build 0)  -->
<svg version="1.1" id="Layer_1" xmlns="http://www.w3.org/2000/svg" xmlns:xlink="http://www.w3.org/1999/xlink" x="0px" y="0px"
	 viewBox="0 0 114 113" style="enable-background:new 0 0 114 113;" xml:space="preserve">
<style type="text/css">
	.st0{fill:#5AAAFA;}
	.st1{fill:#464646;}
	.st2{fill:#FFFFFF;}
</style>
<ellipse class="st0" cx="40.4" cy="40.3" rx="37.4" ry="37.3"/>
<title>Group 2</title>
<desc>Created with Sketch.</desc>
<rect x="86.6" y="74.5" transform="matrix(0.7071 -0.7071 0.7071 0.7071 -38.365 94.3991)" class="st1" width="16.3" height="38"/>
<ellipse class="st1" cx="75.5" cy="74.3" rx="3.8" ry="3.8"/>
<path class="st1" d="M40.4,0.5c-22,0-39.9,17.9-39.9,39.8c0,21.9,17.9,39.8,39.9,39.8s39.9-17.9,39.9-39.8
	C80.2,18.4,62.3,0.5,40.4,0.5z M40.4,75.1c-19.2,0-34.9-15.6-34.9-34.8c0-19.2,15.6-34.8,34.9-34.8c19.2,0,34.9,15.6,34.9,34.8
	C75.2,59.5,59.6,75.1,40.4,75.1z"/>
<path class="st2" d="M40.4,6.6C21.7,6.6,6.6,21.7,6.6,40.3C6.6,58.9,21.7,74,40.4,74C59,74,74.1,58.9,74.1,40.3
	C74.1,21.7,59,6.6,40.4,6.6z M40.4,73C22.3,73,7.6,58.3,7.6,40.3c0-18,14.7-32.7,32.8-32.7s32.8,14.7,32.8,32.7
	C73.1,58.3,58.4,73,40.4,73z"/>
<g>
	<rect x="52.5" y="44.5" transform="matrix(0.7316 -0.6818 0.6818 0.7316 -15.1919 51.4357)" class="st2" width="10.5" height="1"/>
	<rect x="52.5" y="48.3" transform="matrix(0.7316 -0.6818 0.6818 0.7316 -17.7465 52.4415)" class="st2" width="10.5" height="1"/>
</g>
<g>
	<rect x="21" y="27" transform="matrix(0.7316 -0.6818 0.6818 0.7316 -11.689 25.2418)" class="st2" width="10.5" height="1"/>
	<rect x="20.6" y="30.5" transform="matrix(0.7317 -0.6816 0.6816 0.7317 -14.0638 26.1675)" class="st2" width="11.2" height="1"/>
</g>
</svg>
