<?xml version="1.0" encoding="utf-8"?>
<svg xml:space="preserve" style="enable-background:new 0 0 64 64;" viewBox="0 0 64 64" y="0px" x="0px" xmlns:xlink="http://www.w3.org/1999/xlink" xmlns="http://www.w3.org/2000/svg" version="1.1">
<g>
	<circle r="3" cy="29.1" cx="47" fill="currentColor"/>
	<circle r="4.5" cy="41.5" cx="43.6" fill="currentColor"/>
	<path d="M43.1,27.1c0-7.2-5.9-13.1-13.1-13.1s-13.1,5.9-13.1,13.1c0,2.3,0.6,4.5,1.7,6.4c-1.5,1.5-2.5,3.7-2.5,6
		c0,4.7,3.8,8.5,8.5,8.5c4.6,0,8.4-3.6,8.5-8.2C38.8,38.4,43.1,33.2,43.1,27.1z M29.9,15.7c6.3,0,11.4,5.1,11.4,11.4
		c0,5.3-3.6,9.7-8.4,11c-0.7-4-4.2-7.1-8.4-7.1c-1.7,0-3.4,0.5-4.7,1.4c-0.9-1.6-1.3-3.4-1.3-5.3C18.5,20.8,23.6,15.7,29.9,15.7z" fill="currentColor"/>
</g>
<polygon points="5.9,52.1 5.9,12 4,12 4,52.1 4,54 5.9,54 60,54 60,52.1 " fill="currentColor"/>
</svg>