<?xml version="1.0" encoding="utf-8"?>
<svg xml:space="preserve" style="enable-background:new 0 0 64 64;" viewBox="0 0 64 64" y="0px" x="0px" xmlns:xlink="http://www.w3.org/1999/xlink" xmlns="http://www.w3.org/2000/svg" version="1.1">
<g>
	<g>
		<path d="M40.6,8c8.2,0,14.9,6.7,14.9,15s-6.7,15-14.9,15c-8.2,0-14.9-6.7-14.9-15S32.4,8,40.6,8 M40.6,6
			c-9.3,0-16.9,7.6-16.9,17s7.6,17,16.9,17s16.9-7.6,16.9-17S50,6,40.6,6L40.6,6z" fill="currentColor"/>
	</g>
	<g>
		<ellipse ry="5.7" rx="5.7" cy="42.3" cx="52.3" fill="currentColor"/>
	</g>
	<g>
		<path d="M38.2,59c-5.7,0-10.4-4.7-10.4-10.4c0-5.7,4.6-10.4,10.4-10.4s10.4,4.7,10.4,10.4C48.6,54.3,43.9,59,38.2,59z
			 M38.2,40.2c-4.6,0-8.4,3.8-8.4,8.4s3.7,8.4,8.4,8.4s8.4-3.8,8.4-8.4S42.8,40.2,38.2,40.2z" fill="currentColor"/>
	</g>
	<g>
		<path d="M15.5,30.5c-5.2,0-9.4-4.2-9.4-9.4s4.2-9.4,9.4-9.4s9.4,4.2,9.4,9.4S20.7,30.5,15.5,30.5z M15.5,13.7
			c-4.1,0-7.4,3.3-7.4,7.4s3.3,7.4,7.4,7.4s7.4-3.3,7.4-7.4S19.6,13.7,15.5,13.7z" fill="currentColor"/>
	</g>
	<g>
		<ellipse ry="12.3" rx="12.3" cy="41.6" cx="18.3" fill="currentColor"/>
	</g>
</g>
</svg>